<svg width="18" height="18" viewBox="0 0 18 18" fill="none" xmlns="http://www.w3.org/2000/svg">
<path fill-rule="evenodd" clip-rule="evenodd" d="M8.99999 17.3333C13.6024 17.3333 17.3333 13.6024 17.3333 8.99999C17.3333 4.39762 13.6024 0.666656 8.99999 0.666656C4.39762 0.666656 0.666656 4.39762 0.666656 8.99999C0.666656 13.6024 4.39762 17.3333 8.99999 17.3333ZM14.2665 13.0881C15.1441 11.9592 15.6667 10.5406 15.6667 8.99999C15.6667 5.60031 13.1219 2.79498 9.83332 2.3849V5.77167C11.271 6.14171 12.3333 7.44679 12.3333 8.99999C12.3333 9.6182 12.165 10.1971 11.8718 10.6934L14.2665 13.0881ZM13.088 14.2666L10.6932 11.8719C10.197 12.1651 9.61813 12.3333 8.99999 12.3333C8.38185 12.3333 7.80301 12.1651 7.30676 11.8719L4.91202 14.2666C6.04092 15.1441 7.45943 15.6667 8.99999 15.6667C10.5406 15.6667 11.9591 15.1441 13.088 14.2666ZM5.66666 8.99999C5.66666 9.6182 5.83495 10.1971 6.12822 10.6934L3.7335 13.0881C2.85591 11.9592 2.33332 10.5406 2.33332 8.99999C2.33332 5.60031 4.87806 2.79498 8.16666 2.3849V5.77167C6.72897 6.14171 5.66666 7.44679 5.66666 8.99999ZM8.99999 10.6667C9.92046 10.6667 10.6667 9.92047 10.6667 8.99999C10.6667 8.07952 9.92046 7.33332 8.99999 7.33332C8.07951 7.33332 7.33332 8.07952 7.33332 8.99999C7.33332 9.92047 8.07951 10.6667 8.99999 10.6667Z" fill="#72767C"/>
</svg>
