<svg width="18" height="18" viewBox="0 0 18 18" fill="none" xmlns="http://www.w3.org/2000/svg">
<path fill-rule="evenodd" clip-rule="evenodd" d="M8.19098 11.5006C8.65089 11.4832 9.03779 11.842 9.05515 12.3019C9.09429 13.3387 9.14927 14.0954 9.20332 14.638C9.25655 15.1723 9.57912 15.4938 10.0288 15.5488C10.559 15.6136 11.3069 15.6667 12.3333 15.6667C13.3597 15.6667 14.1077 15.6136 14.6379 15.5488C15.0873 15.4939 15.41 15.1722 15.4633 14.6378C15.5636 13.6306 15.6666 11.8907 15.6666 8.99999C15.6666 6.10931 15.5636 4.36933 15.4633 3.36222C15.41 2.82776 15.0873 2.50613 14.6379 2.45119C14.1077 2.38637 13.3597 2.33332 12.3333 2.33332C11.3069 2.33332 10.559 2.38637 10.0288 2.45118C9.57912 2.50615 9.25655 2.82764 9.20332 3.36197C9.14927 3.90453 9.09429 4.66127 9.05515 5.69809C9.03779 6.158 8.65089 6.51676 8.19098 6.4994C7.73107 6.48203 7.37231 6.09513 7.38967 5.63522C7.42985 4.57103 7.48681 3.77951 7.54486 3.19675C7.66691 1.97161 8.52108 0.956408 9.82654 0.796828C10.4342 0.722545 11.2507 0.666657 12.3333 0.666656C13.416 0.666656 14.2324 0.722548 14.8401 0.796836C16.1457 0.956438 16.9997 1.97212 17.1217 3.19701C17.2292 4.27556 17.3333 6.07372 17.3333 8.99999C17.3333 11.9263 17.2292 13.7244 17.1217 14.803C16.9997 16.0279 16.1457 17.0435 14.8401 17.2031C14.2324 17.2774 13.416 17.3333 12.3333 17.3333C11.2507 17.3333 10.4342 17.2774 9.82655 17.2032C8.52108 17.0436 7.66691 16.0284 7.54486 14.8032C7.48681 14.2205 7.42985 13.4289 7.38967 12.3648C7.37231 11.9048 7.73107 11.5179 8.19098 11.5006Z" fill="#72767C"/>
<path fill-rule="evenodd" clip-rule="evenodd" d="M5.00591 11.3274C5.33135 11.6528 5.33135 12.1805 5.00591 12.5059C4.68048 12.8313 4.15284 12.8313 3.8274 12.5059L0.910734 9.58925C0.585297 9.26381 0.585297 8.73617 0.910734 8.41073L3.8274 5.49407C4.15284 5.16863 4.68048 5.16863 5.00591 5.49407C5.33135 5.8195 5.33135 6.34714 5.00591 6.67258L3.51183 8.16666H11.5C11.9602 8.16666 12.3333 8.53975 12.3333 8.99999C12.3333 9.46023 11.9602 9.83332 11.5 9.83332L3.51183 9.83332L5.00591 11.3274Z" fill="#72767C"/>
</svg>
