<svg width="18" height="18" viewBox="0 0 18 18" fill="none" xmlns="http://www.w3.org/2000/svg">
<path fill-rule="evenodd" clip-rule="evenodd" d="M4.83332 12.2511V14.8293L9.05183 12.3365L9.49276 12.3293C11.246 12.3006 12.8238 12.1241 14.0036 11.9445C14.7482 11.8313 15.2656 11.3116 15.378 10.6591C15.5339 9.75408 15.6667 8.60745 15.6667 7.33335C15.6667 6.05925 15.5339 4.91262 15.378 4.00758C15.2656 3.35509 14.7482 2.83545 14.0036 2.72216C12.7133 2.52582 10.9486 2.33335 8.99999 2.33335C7.05138 2.33335 5.28672 2.52582 3.99634 2.72216C3.25177 2.83545 2.73441 3.35509 2.62202 4.00758C2.46612 4.91262 2.33332 6.05925 2.33332 7.33335C2.33332 8.60745 2.46612 9.75408 2.62202 10.6591C2.71961 11.2257 3.11544 11.6799 3.69256 11.8718L4.83332 12.2511ZM0.979538 3.72466C1.22136 2.32075 2.33726 1.28875 3.74563 1.07446C5.09508 0.869131 6.94631 0.666687 8.99999 0.666687C11.0537 0.666687 12.9049 0.869132 14.2543 1.07446C15.6627 1.28875 16.7786 2.32075 17.0204 3.72466C17.189 4.70312 17.3333 5.94606 17.3333 7.33335C17.3333 8.72064 17.189 9.96359 17.0204 10.942C16.7786 12.346 15.6627 13.378 14.2543 13.5923C13.0198 13.7801 11.3653 13.9655 9.52005 13.9957L4.42393 17.0071C3.86842 17.3353 3.16666 16.9349 3.16666 16.2896V13.4533C2.03879 13.0783 1.18712 12.1472 0.979538 10.942C0.811 9.96359 0.666656 8.72064 0.666656 7.33335C0.666656 5.94606 0.811 4.70312 0.979538 3.72466Z" fill="#72767C"/>
<path fill-rule="evenodd" clip-rule="evenodd" d="M4.83332 4.83335C4.37309 4.83335 3.99999 5.20645 3.99999 5.66669C3.99999 6.12692 4.37309 6.50002 4.83332 6.50002H13.1667C13.6269 6.50002 14 6.12692 14 5.66669C14 5.20645 13.6269 4.83335 13.1667 4.83335H4.83332ZM4.83332 8.16669C4.37309 8.16669 3.99999 8.53978 3.99999 9.00002C3.99999 9.46026 4.37309 9.83335 4.83332 9.83335H8.16666C8.62689 9.83335 8.99999 9.46026 8.99999 9.00002C8.99999 8.53978 8.62689 8.16669 8.16666 8.16669H4.83332Z" fill="#72767C"/>
</svg>
