<svg width="18" height="18" viewBox="0 0 18 18" fill="none" xmlns="http://www.w3.org/2000/svg">
<path d="M17.0892 2.08925C17.4147 1.76381 17.4147 1.23617 17.0892 0.910734C16.7638 0.585297 16.2362 0.585297 15.9107 0.910734L5.49407 11.3274C5.16863 11.6528 5.16863 12.1805 5.49407 12.5059C5.81951 12.8314 6.34714 12.8314 6.67258 12.5059L17.0892 2.08925Z" fill="#72767C"/>
<path d="M3.33925 15.8392C3.66468 15.5138 3.66468 14.9862 3.33925 14.6607C3.01381 14.3353 2.48617 14.3353 2.16073 14.6607L0.910735 15.9107C0.585298 16.2362 0.585298 16.7638 0.910735 17.0892C1.23617 17.4147 1.76381 17.4147 2.08925 17.0892L3.33925 15.8392Z" fill="#72767C"/>
<path fill-rule="evenodd" clip-rule="evenodd" d="M4.2055 15.1818C4.43653 15.4128 4.79455 15.5013 5.04842 15.2957C5.42557 14.9901 5.66667 14.5232 5.66667 14C5.66667 13.0795 4.92048 12.3333 4 12.3333C3.47679 12.3333 3.00988 12.5744 2.70432 12.9516C2.49865 13.2054 2.58716 13.5635 2.81819 13.7945L4.2055 15.1818ZM5.01926 17.1746C4.38791 17.3771 3.73661 17.0699 3.26777 16.6011L1.3989 14.7322C0.930059 14.2634 0.622841 13.6121 0.825383 12.9807C1.25604 11.6383 2.51455 10.6667 4 10.6667C5.84095 10.6667 7.33333 12.159 7.33333 14C7.33333 15.4854 6.36167 16.744 5.01926 17.1746Z" fill="#72767C"/>
<path d="M0.910734 2.08925C0.585297 1.76381 0.585297 1.23617 0.910734 0.910734C1.23617 0.585297 1.76381 0.585297 2.08925 0.910734L12.5059 11.3274C12.8313 11.6528 12.8313 12.1805 12.5059 12.5059C12.1805 12.8314 11.6528 12.8314 11.3274 12.5059L0.910734 2.08925Z" fill="#72767C"/>
<path d="M14.6607 15.8392C14.3353 15.5138 14.3353 14.9862 14.6607 14.6607C14.9862 14.3353 15.5138 14.3353 15.8392 14.6607L17.0892 15.9107C17.4147 16.2362 17.4147 16.7638 17.0892 17.0892C16.7638 17.4147 16.2362 17.4147 15.9107 17.0892L14.6607 15.8392Z" fill="#72767C"/>
<path fill-rule="evenodd" clip-rule="evenodd" d="M13.7945 15.1818C13.5634 15.4128 13.2054 15.5013 12.9516 15.2957C12.5744 14.9901 12.3333 14.5232 12.3333 14C12.3333 13.0795 13.0795 12.3333 14 12.3333C14.5232 12.3333 14.9901 12.5744 15.2957 12.9516C15.5013 13.2054 15.4128 13.5635 15.1818 13.7945L13.7945 15.1818ZM12.9807 17.1746C13.6121 17.3771 14.2634 17.0699 14.7322 16.6011L16.6011 14.7322C17.0699 14.2634 17.3771 13.6121 17.1746 12.9807C16.7439 11.6383 15.4854 10.6667 14 10.6667C12.159 10.6667 10.6666 12.159 10.6666 14C10.6666 15.4854 11.6383 16.744 12.9807 17.1746Z" fill="#72767C"/>
</svg>
