<svg width="18" height="18" viewBox="0 0 18 18" fill="none" xmlns="http://www.w3.org/2000/svg">
<path fill-rule="evenodd" clip-rule="evenodd" d="M15.6246 4.9087C15.6332 4.25778 15.3892 3.60413 14.8925 3.10746C14.3959 2.6108 13.7422 2.36679 13.0913 2.37546V2.37546C12.7315 2.38035 12.3719 2.46243 12.0408 2.6217C11.9222 2.67877 11.8071 2.74576 11.6968 2.82267C11.6543 2.85228 11.5997 2.85904 11.5519 2.83921C11.5041 2.81939 11.4702 2.77596 11.4611 2.72503C11.4375 2.59268 11.4035 2.46394 11.36 2.33968C11.2385 1.99295 11.0427 1.68112 10.7918 1.42327V1.42327C10.3376 0.956881 9.70238 0.666687 8.99999 0.666687C8.2976 0.666687 7.66286 0.956353 7.20872 1.42274V1.42274C6.95779 1.68059 6.76152 1.99295 6.64002 2.33968C6.59648 2.46394 6.56247 2.59268 6.53888 2.72503C6.5298 2.77596 6.4959 2.81939 6.44811 2.83921C6.40029 2.85904 6.34563 2.85228 6.30317 2.82266C6.19291 2.74576 6.07783 2.67877 5.95917 2.6217C5.62808 2.46243 5.26917 2.38036 4.9094 2.37546V2.37546C4.25849 2.3668 3.6041 2.6108 3.10743 3.10746C2.61077 3.60413 2.36676 4.25778 2.37542 4.9087V4.9087C2.38032 5.26846 2.4624 5.62811 2.62166 5.9592C2.67874 6.07785 2.74573 6.19293 2.82263 6.3032C2.85225 6.34566 2.85901 6.40032 2.83918 6.44814C2.81936 6.49593 2.77593 6.52983 2.725 6.53891C2.59265 6.5625 2.4639 6.59651 2.33963 6.64006C1.99291 6.76155 1.68109 6.95731 1.42324 7.20824V7.20824C0.95685 7.66238 0.666656 8.29763 0.666656 9.00002C0.666656 9.70241 0.956323 10.3372 1.42271 10.7913V10.7913C1.68056 11.0422 1.99291 11.2385 2.33963 11.36C2.4639 11.4035 2.59265 11.4375 2.725 11.4611C2.77593 11.4702 2.81936 11.5041 2.83918 11.5519C2.85901 11.5997 2.85225 11.6544 2.82263 11.6968C2.74573 11.8071 2.67874 11.9222 2.62166 12.0408C2.4624 12.3719 2.38033 12.7308 2.37543 13.0906V13.0906C2.36677 13.7415 2.61077 14.3959 3.10743 14.8926C3.6041 15.3892 4.25775 15.6332 4.90867 15.6246V15.6246C5.26843 15.6197 5.62807 15.5376 5.95915 15.3784C6.07781 15.3213 6.1929 15.2543 6.30317 15.1774C6.34563 15.1478 6.40029 15.141 6.44811 15.1608C6.4959 15.1807 6.5298 15.2241 6.53888 15.275C6.56248 15.4074 6.59648 15.5361 6.64003 15.6604C6.76153 16.0071 6.95728 16.3189 7.2082 16.5768V16.5768C7.66235 17.0432 8.2976 17.3334 8.99999 17.3334C9.70239 17.3334 10.3371 17.0437 10.7913 16.5773V16.5773C11.0422 16.3194 11.2385 16.0071 11.36 15.6604C11.4035 15.5361 11.4375 15.4074 11.4611 15.275C11.4702 15.2241 11.5041 15.1807 11.5519 15.1608C11.5997 15.141 11.6544 15.1478 11.6968 15.1774C11.8071 15.2543 11.9222 15.3213 12.0408 15.3784C12.3719 15.5376 12.7308 15.6197 13.0906 15.6246V15.6246C13.7415 15.6332 14.3959 15.3892 14.8925 14.8926C15.3892 14.3959 15.6332 13.7423 15.6246 13.0913V13.0913C15.6197 12.7316 15.5376 12.3719 15.3783 12.0409C15.3212 11.9222 15.2543 11.8071 15.1773 11.6968C15.1477 11.6544 15.141 11.5997 15.1608 11.5519C15.1806 11.5041 15.2241 11.4702 15.275 11.4611C15.4073 11.4375 15.5361 11.4035 15.6603 11.36C16.0071 11.2385 16.3189 11.0427 16.5767 10.7918V10.7918C17.0431 10.3377 17.3333 9.70242 17.3333 9.00002C17.3333 8.29763 17.0437 7.66289 16.5773 7.20875V7.20875C16.3194 6.95782 16.0071 6.76156 15.6603 6.64006C15.5361 6.59651 15.4073 6.56251 15.275 6.53891C15.2241 6.52983 15.1806 6.49593 15.1608 6.44814C15.141 6.40032 15.1477 6.34566 15.1773 6.3032C15.2543 6.19293 15.3212 6.07784 15.3783 5.95919C15.5376 5.6281 15.6197 5.26846 15.6246 4.9087V4.9087ZM13.714 4.28597C13.4254 3.99729 12.9742 3.96372 12.6502 4.1897C12.1586 4.53256 11.5058 4.62437 10.9135 4.37876C10.3227 4.13378 9.92559 3.60823 9.8203 3.01751C9.75097 2.6286 9.40825 2.33335 8.99999 2.33335C8.59173 2.33335 8.24901 2.6286 8.17968 3.01751C8.07439 3.60822 7.6773 4.13378 7.08652 4.37875C6.49422 4.62437 5.84136 4.53255 5.34976 4.1897C5.02574 3.96372 4.57463 3.99729 4.28594 4.28597C3.99726 4.57466 3.96369 5.02577 4.18967 5.34979C4.53253 5.84139 4.62434 6.49425 4.37872 7.08655C4.13375 7.67733 3.60819 8.07442 3.01748 8.17972C2.62857 8.24904 2.33332 8.59176 2.33332 9.00002C2.33332 9.40828 2.62857 9.751 3.01748 9.82033C3.60819 9.92562 4.13375 10.3227 4.37872 10.9135C4.62434 11.5058 4.53253 12.1587 4.18967 12.6503C3.96369 12.9743 3.99726 13.4254 4.28594 13.7141C4.57463 14.0027 5.02574 14.0363 5.34976 13.8103C5.84135 13.4675 6.49421 13.3757 7.08652 13.6213C7.67729 13.8663 8.07439 14.3918 8.17969 14.9825C8.24901 15.3714 8.59173 15.6667 8.99999 15.6667C9.40825 15.6667 9.75097 15.3714 9.8203 14.9825C9.92559 14.3918 10.3227 13.8663 10.9134 13.6213C11.5058 13.3757 12.1586 13.4675 12.6502 13.8103C12.9742 14.0363 13.4254 14.0027 13.714 13.7141C14.0027 13.4254 14.0363 12.9743 13.8103 12.6503C13.4675 12.1587 13.3756 11.5058 13.6213 10.9135C13.8662 10.3227 14.3918 9.92562 14.9825 9.82033C15.3714 9.751 15.6667 9.40828 15.6667 9.00002C15.6667 8.59176 15.3714 8.24904 14.9825 8.17972C14.3918 8.07442 13.8662 7.67733 13.6213 7.08656C13.3756 6.49425 13.4675 5.84138 13.8103 5.34979C14.0363 5.02577 14.0027 4.57466 13.714 4.28597Z" fill="#72767C"/>
<path fill-rule="evenodd" clip-rule="evenodd" d="M8.99999 10.6667C9.92046 10.6667 10.6667 9.92049 10.6667 9.00002C10.6667 8.07955 9.92046 7.33335 8.99999 7.33335C8.07951 7.33335 7.33332 8.07955 7.33332 9.00002C7.33332 9.92049 8.07951 10.6667 8.99999 10.6667ZM8.99999 12.3334C10.8409 12.3334 12.3333 10.841 12.3333 9.00002C12.3333 7.15907 10.8409 5.66669 8.99999 5.66669C7.15904 5.66669 5.66666 7.15907 5.66666 9.00002C5.66666 10.841 7.15904 12.3334 8.99999 12.3334Z" fill="#72767C"/>
</svg>
