<svg width="18" height="18" viewBox="0 0 18 18" fill="none" xmlns="http://www.w3.org/2000/svg">
<path fill-rule="evenodd" clip-rule="evenodd" d="M13.7852 5.66666H4.21484C3.25348 5.66666 2.49145 6.47779 2.55142 7.43729L2.96809 14.104C3.02299 14.9823 3.75141 15.6667 4.63151 15.6667H13.3685C14.2486 15.6667 14.977 14.9823 15.0319 14.104L15.4486 7.43729C15.5086 6.47779 14.7465 5.66666 13.7852 5.66666ZM4.21484 3.99999C2.29211 3.99999 0.768065 5.62226 0.888002 7.54125L1.30467 14.2079C1.41447 15.9647 2.8713 17.3333 4.63151 17.3333H13.3685C15.1287 17.3333 16.5855 15.9647 16.6953 14.2079L17.112 7.54125C17.2319 5.62226 15.7079 3.99999 13.7852 3.99999H4.21484Z" fill="#72767C"/>
<path fill-rule="evenodd" clip-rule="evenodd" d="M4.83334 4.83332C4.83334 2.53214 6.69882 0.666656 9.00001 0.666656C11.3012 0.666656 13.1667 2.53214 13.1667 4.83332V6.49999C13.1667 6.96023 12.7936 7.33332 12.3333 7.33332C11.8731 7.33332 11.5 6.96023 11.5 6.49999V4.83332C11.5 3.45261 10.3807 2.33332 9.00001 2.33332C7.61929 2.33332 6.50001 3.45261 6.50001 4.83332V6.49999C6.50001 6.96023 6.12691 7.33332 5.66667 7.33332C5.20644 7.33332 4.83334 6.96023 4.83334 6.49999V4.83332Z" fill="#72767C"/>
</svg>
