<svg width="20" height="20" viewBox="0 0 20 20" fill="none" xmlns="http://www.w3.org/2000/svg">
<path d="M4.58332 14.5833H3.33332V5.41667H9.83332L9.16666 6.08333C8.99999 6.25 8.91666 6.41667 8.91666 6.66667C8.91666 7.16667 9.24999 7.5 9.74999 7.5C9.99999 7.5 10.1667 7.41667 10.3333 7.25L12.4167 5.16667C12.75 4.83333 12.75 4.33333 12.4167 4L10.3333 1.91667C9.99999 1.58333 9.49999 1.58333 9.16666 1.91667C8.83332 2.25 8.83332 2.75 9.16666 3.08333L9.83332 3.75H2.49999C1.99999 3.75 1.66666 4.08333 1.66666 4.58333V15.4167C1.66666 15.9167 1.99999 16.25 2.49999 16.25H4.58332C5.08332 16.25 5.41666 15.9167 5.41666 15.4167C5.41666 14.9167 5.08332 14.5833 4.58332 14.5833ZM17.5 3.75H15.4167C14.9167 3.75 14.5833 4.08333 14.5833 4.58333C14.5833 5.08333 14.9167 5.41667 15.4167 5.41667H16.6667V14.5833H9.66666L10.3333 13.9167C10.6667 13.5833 10.6667 13.0833 10.3333 12.75C9.99999 12.4167 9.49999 12.4167 9.16666 12.75L7.08332 14.8333C6.74999 15.1667 6.74999 15.6667 7.08332 16L9.16666 18.0833C9.33332 18.25 9.49999 18.3333 9.74999 18.3333C9.99999 18.3333 10.1667 18.25 10.3333 18.0833C10.6667 17.75 10.6667 17.25 10.3333 16.9167L9.66666 16.25H17.5C18 16.25 18.3333 15.9167 18.3333 15.4167V4.58333C18.3333 4.08333 18 3.75 17.5 3.75Z" fill="#72767C"/>
</svg>
