<svg width="18" height="18" viewBox="0 0 18 18" fill="none" xmlns="http://www.w3.org/2000/svg">
<path fill-rule="evenodd" clip-rule="evenodd" d="M14.8333 4.00002H3.16666C2.70642 4.00002 2.33332 4.37312 2.33332 4.83335V14.8334C2.33332 15.2936 2.70642 15.6667 3.16666 15.6667H14.8333C15.2936 15.6667 15.6667 15.2936 15.6667 14.8334V4.83335C15.6667 4.37312 15.2936 4.00002 14.8333 4.00002ZM3.16666 2.33335C1.78594 2.33335 0.666656 3.45264 0.666656 4.83335V14.8334C0.666656 16.2141 1.78594 17.3334 3.16666 17.3334H14.8333C16.214 17.3334 17.3333 16.2141 17.3333 14.8334V4.83335C17.3333 3.45264 16.214 2.33335 14.8333 2.33335H3.16666Z" fill="#72767C"/>
<path fill-rule="evenodd" clip-rule="evenodd" d="M7.33332 9.00002C6.87309 9.00002 6.49999 9.37312 6.49999 9.83335C6.49999 10.2936 6.87309 10.6667 7.33332 10.6667H13.1667C13.6269 10.6667 14 10.2936 14 9.83335C14 9.37312 13.6269 9.00002 13.1667 9.00002H7.33332ZM4.83332 12.3334C4.37309 12.3334 3.99999 12.7064 3.99999 13.1667C3.99999 13.6269 4.37309 14 4.83332 14H9.83332C10.2936 14 10.6667 13.6269 10.6667 13.1667C10.6667 12.7064 10.2936 12.3334 9.83332 12.3334H4.83332Z" fill="#72767C"/>
<path fill-rule="evenodd" clip-rule="evenodd" d="M4.83332 0.666687C4.37309 0.666687 3.99999 1.03978 3.99999 1.50002V4.83335C3.99999 5.29359 4.37309 5.66669 4.83332 5.66669C5.29356 5.66669 5.66666 5.29359 5.66666 4.83335V1.50002C5.66666 1.03978 5.29356 0.666687 4.83332 0.666687ZM13.1667 0.666687C12.7064 0.666687 12.3333 1.03978 12.3333 1.50002V4.83335C12.3333 5.29359 12.7064 5.66669 13.1667 5.66669C13.6269 5.66669 14 5.29359 14 4.83335V1.50002C14 1.03978 13.6269 0.666687 13.1667 0.666687Z" fill="#72767C"/>
</svg>
