<svg width="18" height="16" viewBox="0 0 18 16" fill="none" xmlns="http://www.w3.org/2000/svg">
<path d="M16.31 5.63L15.17 2.20917C15.0046 1.71124 14.6865 1.27808 14.2609 0.971257C13.8353 0.66443 13.3238 0.499535 12.7992 0.500001H5.20082C4.67615 0.499535 4.16467 0.66443 3.73906 0.971257C3.31345 1.27808 2.99536 1.71124 2.82999 2.20917L1.68999 5.63C1.38717 5.75706 1.12855 5.97063 0.946527 6.24397C0.7645 6.51731 0.667147 6.83827 0.666656 7.16667V11.3333C0.666656 11.9608 1.01916 12.5017 1.53249 12.7858C1.52166 12.8408 1.49999 12.8908 1.49999 12.9483V14.6667C1.49999 14.8877 1.58779 15.0996 1.74407 15.2559C1.90035 15.4122 2.11231 15.5 2.33332 15.5H3.16666C3.38767 15.5 3.59963 15.4122 3.75591 15.2559C3.91219 15.0996 3.99999 14.8877 3.99999 14.6667V13H14V14.6667C14 14.8877 14.0878 15.0996 14.2441 15.2559C14.4003 15.4122 14.6123 15.5 14.8333 15.5H15.6667C15.8877 15.5 16.0996 15.4122 16.2559 15.2559C16.4122 15.0996 16.5 14.8877 16.5 14.6667V12.9483C16.5 12.8908 16.4783 12.84 16.4675 12.7858C16.7287 12.6434 16.9468 12.4335 17.0991 12.178C17.2514 11.9225 17.3323 11.6308 17.3333 11.3333V7.16667C17.3333 6.47583 16.91 5.8825 16.31 5.63ZM2.33332 11.3333V7.16667H15.6667L15.6683 11.3333H2.33332ZM5.20082 2.16667H12.7983C13.1575 2.16667 13.4758 2.395 13.5892 2.73667L14.5108 5.5H3.48916L4.40999 2.73667C4.46528 2.57066 4.57142 2.42627 4.71336 2.32397C4.85531 2.22166 5.02585 2.16663 5.20082 2.16667Z" fill="#72767C"/>
<path d="M4.41666 10.5C5.10701 10.5 5.66666 9.94036 5.66666 9.25C5.66666 8.55964 5.10701 8 4.41666 8C3.7263 8 3.16666 8.55964 3.16666 9.25C3.16666 9.94036 3.7263 10.5 4.41666 10.5Z" fill="#72767C"/>
<path d="M13.5833 10.5C14.2737 10.5 14.8333 9.94036 14.8333 9.25C14.8333 8.55964 14.2737 8 13.5833 8C12.893 8 12.3333 8.55964 12.3333 9.25C12.3333 9.94036 12.893 10.5 13.5833 10.5Z" fill="#72767C"/>
</svg>
