<svg width="18" height="19" viewBox="0 0 18 19" fill="none" xmlns="http://www.w3.org/2000/svg">
<path fill-rule="evenodd" clip-rule="evenodd" d="M7.33332 15.6667C7.33332 17.0474 6.21403 18.1667 4.83332 18.1667C3.45261 18.1667 2.33332 17.0474 2.33332 15.6667C2.33332 14.2859 3.45261 13.1667 4.83332 13.1667C6.21403 13.1667 7.33332 14.2859 7.33332 15.6667ZM5.66666 15.6667C5.66666 16.1269 5.29356 16.5 4.83332 16.5C4.37309 16.5 3.99999 16.1269 3.99999 15.6667C3.99999 15.2064 4.37309 14.8333 4.83332 14.8333C5.29356 14.8333 5.66666 15.2064 5.66666 15.6667Z" fill="#72767C"/>
<path fill-rule="evenodd" clip-rule="evenodd" d="M15.6667 15.6667C15.6667 17.0474 14.5474 18.1667 13.1667 18.1667C11.7859 18.1667 10.6667 17.0474 10.6667 15.6667C10.6667 14.2859 11.7859 13.1667 13.1667 13.1667C14.5474 13.1667 15.6667 14.2859 15.6667 15.6667ZM14 15.6667C14 16.1269 13.6269 16.5 13.1667 16.5C12.7064 16.5 12.3333 16.1269 12.3333 15.6667C12.3333 15.2064 12.7064 14.8333 13.1667 14.8333C13.6269 14.8333 14 15.2064 14 15.6667Z" fill="#72767C"/>
<path fill-rule="evenodd" clip-rule="evenodd" d="M0.754633 1.12731C0.960458 0.715663 1.46102 0.548809 1.87267 0.754633L2.70892 1.17276C3.48331 1.55996 4.00224 2.32025 4.08062 3.18249L4.12049 3.62105C4.14 3.83566 4.31994 3.99999 4.53545 3.99999H15.5296C16.9842 3.99999 17.991 5.45285 17.4803 6.81483L16.0191 10.7111C15.6532 11.6869 14.7204 12.3333 13.6783 12.3333H5.52201C4.22901 12.3333 3.14934 11.3474 3.03228 10.0597L2.4208 3.33338C2.39467 3.04597 2.2217 2.79254 1.96357 2.66347L1.12731 2.24535C0.715663 2.03952 0.548809 1.53896 0.754633 1.12731ZM4.76272 5.66666C4.51771 5.66666 4.32558 5.87704 4.34776 6.12105L4.6921 9.90877C4.73112 10.338 5.09101 10.6667 5.52201 10.6667H13.6783C14.0257 10.6667 14.3366 10.4512 14.4586 10.1259L15.9197 6.22962C16.0219 5.95723 15.8205 5.66666 15.5296 5.66666H4.76272Z" fill="#72767C"/>
</svg>
