<svg width="18" height="18" viewBox="0 0 18 18" fill="none" xmlns="http://www.w3.org/2000/svg">
<path fill-rule="evenodd" clip-rule="evenodd" d="M13.5833 11.5C13.2065 11.5 12.6741 11.5521 12.1198 11.628C11.8609 11.6634 11.6634 11.8609 11.628 12.1198C11.5521 12.6741 11.5 13.2065 11.5 13.5833C11.5 13.9601 11.5521 14.4926 11.628 15.0468C11.6634 15.3058 11.8609 15.5032 12.1198 15.5387C12.6741 15.6146 13.2065 15.6667 13.5833 15.6667C13.9601 15.6667 14.4926 15.6146 15.0468 15.5387C15.3058 15.5032 15.5032 15.3058 15.5387 15.0468C15.6146 14.4926 15.6667 13.9601 15.6667 13.5833C15.6667 13.2065 15.6146 12.6741 15.5387 12.1198C15.5032 11.8609 15.3058 11.6634 15.0468 11.628C14.4926 11.5521 13.9601 11.5 13.5833 11.5ZM11.8937 9.97673C10.8938 10.1137 10.1137 10.8938 9.97673 11.8937C9.89819 12.4672 9.83332 13.0901 9.83332 13.5833C9.83332 14.0765 9.89819 14.6995 9.97673 15.273C10.1137 16.2729 10.8938 17.053 11.8937 17.1899C12.4672 17.2685 13.0901 17.3333 13.5833 17.3333C14.0765 17.3333 14.6995 17.2685 15.273 17.1899C16.2729 17.053 17.053 16.2729 17.1899 15.273C17.2685 14.6995 17.3333 14.0765 17.3333 13.5833C17.3333 13.0901 17.2685 12.4672 17.1899 11.8937C17.053 10.8938 16.2729 10.1137 15.273 9.97673C14.6995 9.89819 14.0765 9.83332 13.5833 9.83332C13.0901 9.83332 12.4672 9.89819 11.8937 9.97673Z" fill="#5F6165"/>
<path fill-rule="evenodd" clip-rule="evenodd" d="M4.41666 11.5C4.03984 11.5 3.50743 11.5521 2.95317 11.628C2.69423 11.6634 2.49678 11.8609 2.46132 12.1198C2.38541 12.6741 2.33332 13.2065 2.33332 13.5833C2.33332 13.9601 2.38541 14.4926 2.46132 15.0468C2.49678 15.3058 2.69423 15.5032 2.95317 15.5387C3.50743 15.6146 4.03984 15.6667 4.41666 15.6667C4.79347 15.6667 5.32589 15.6146 5.88015 15.5387C6.13909 15.5032 6.33653 15.3058 6.37199 15.0468C6.4479 14.4926 6.49999 13.9601 6.49999 13.5833C6.49999 13.2065 6.4479 12.6741 6.37199 12.1198C6.33653 11.8609 6.13909 11.6634 5.88015 11.628C5.32589 11.5521 4.79347 11.5 4.41666 11.5ZM2.72702 9.97673C1.7271 10.1137 0.947009 10.8938 0.810066 11.8937C0.731522 12.4672 0.666656 13.0901 0.666656 13.5833C0.666656 14.0765 0.731522 14.6995 0.810066 15.273C0.947009 16.2729 1.7271 17.053 2.72702 17.1899C3.30053 17.2685 3.92346 17.3333 4.41666 17.3333C4.90986 17.3333 5.53279 17.2685 6.10629 17.1899C7.10621 17.053 7.8863 16.2729 8.02325 15.273C8.10179 14.6995 8.16666 14.0765 8.16666 13.5833C8.16666 13.0901 8.10179 12.4672 8.02325 11.8937C7.8863 10.8938 7.10621 10.1137 6.10629 9.97673C5.53279 9.89819 4.90986 9.83332 4.41666 9.83332C3.92346 9.83332 3.30053 9.89819 2.72702 9.97673Z" fill="#5F6165"/>
<path fill-rule="evenodd" clip-rule="evenodd" d="M13.5833 2.33332C13.2065 2.33332 12.6741 2.38541 12.1198 2.46132C11.8609 2.49678 11.6634 2.69423 11.628 2.95317C11.5521 3.50743 11.5 4.03984 11.5 4.41666C11.5 4.79347 11.5521 5.32589 11.628 5.88015C11.6634 6.13909 11.8609 6.33653 12.1198 6.37199C12.6741 6.4479 13.2065 6.49999 13.5833 6.49999C13.9601 6.49999 14.4926 6.4479 15.0468 6.37199C15.3058 6.33653 15.5032 6.13909 15.5387 5.88015C15.6146 5.32589 15.6667 4.79347 15.6667 4.41666C15.6667 4.03984 15.6146 3.50743 15.5387 2.95317C15.5032 2.69423 15.3058 2.49678 15.0468 2.46132C14.4926 2.38541 13.9601 2.33332 13.5833 2.33332ZM11.8937 0.810066C10.8938 0.947009 10.1137 1.7271 9.97673 2.72702C9.89819 3.30053 9.83332 3.92346 9.83332 4.41666C9.83332 4.90986 9.89819 5.53279 9.97673 6.10629C10.1137 7.10621 10.8938 7.8863 11.8937 8.02325C12.4672 8.10179 13.0901 8.16666 13.5833 8.16666C14.0765 8.16666 14.6995 8.10179 15.273 8.02325C16.2729 7.8863 17.053 7.10621 17.1899 6.10629C17.2685 5.53279 17.3333 4.90986 17.3333 4.41666C17.3333 3.92346 17.2685 3.30053 17.1899 2.72702C17.053 1.7271 16.2729 0.947009 15.273 0.810066C14.6995 0.731522 14.0765 0.666656 13.5833 0.666656C13.0901 0.666656 12.4672 0.731522 11.8937 0.810066Z" fill="#5F6165"/>
<path fill-rule="evenodd" clip-rule="evenodd" d="M4.41666 2.33332C4.03984 2.33332 3.50743 2.38541 2.95317 2.46132C2.69423 2.49678 2.49678 2.69423 2.46132 2.95317C2.38541 3.50743 2.33332 4.03984 2.33332 4.41666C2.33332 4.79347 2.38541 5.32589 2.46132 5.88015C2.49678 6.13909 2.69423 6.33653 2.95317 6.37199C3.50743 6.4479 4.03984 6.49999 4.41666 6.49999C4.79347 6.49999 5.32589 6.4479 5.88015 6.37199C6.13909 6.33653 6.33653 6.13909 6.37199 5.88015C6.4479 5.32589 6.49999 4.79347 6.49999 4.41666C6.49999 4.03984 6.4479 3.50743 6.37199 2.95317C6.33653 2.69423 6.13909 2.49678 5.88015 2.46132C5.32589 2.38541 4.79347 2.33332 4.41666 2.33332ZM2.72702 0.810066C1.7271 0.947009 0.947009 1.7271 0.810066 2.72702C0.731522 3.30053 0.666656 3.92346 0.666656 4.41666C0.666656 4.90986 0.731522 5.53279 0.810066 6.10629C0.947009 7.10621 1.7271 7.8863 2.72702 8.02325C3.30053 8.10179 3.92346 8.16666 4.41666 8.16666C4.90986 8.16666 5.53279 8.10179 6.10629 8.02325C7.10621 7.8863 7.8863 7.10621 8.02325 6.10629C8.10179 5.53279 8.16666 4.90986 8.16666 4.41666C8.16666 3.92346 8.10179 3.30053 8.02325 2.72702C7.8863 1.7271 7.10621 0.947009 6.10629 0.810066C5.53279 0.731522 4.90986 0.666656 4.41666 0.666656C3.92346 0.666656 3.30053 0.731522 2.72702 0.810066Z" fill="#5F6165"/>
</svg>
