<svg width="16" height="16" viewBox="0 0 16 16" fill="none" xmlns="http://www.w3.org/2000/svg">
<path d="M9.33719 7.3372H8.67053V6.67053C8.67053 6.49372 8.60029 6.32415 8.47527 6.19913C8.35024 6.0741 8.18067 6.00387 8.00386 6.00387C7.82705 6.00387 7.65748 6.0741 7.53246 6.19913C7.40743 6.32415 7.33719 6.49372 7.33719 6.67053V7.3372H6.67053C6.49372 7.3372 6.32415 7.40744 6.19912 7.53246C6.0741 7.65749 6.00386 7.82705 6.00386 8.00387C6.00386 8.18068 6.0741 8.35025 6.19912 8.47527C6.32415 8.60029 6.49372 8.67053 6.67053 8.67053H7.33719V9.3372C7.33719 9.51401 7.40743 9.68358 7.53246 9.8086C7.65748 9.93363 7.82705 10.0039 8.00386 10.0039C8.18067 10.0039 8.35024 9.93363 8.47527 9.8086C8.60029 9.68358 8.67053 9.51401 8.67053 9.3372V8.67053H9.33719C9.51401 8.67053 9.68357 8.60029 9.8086 8.47527C9.93362 8.35025 10.0039 8.18068 10.0039 8.00387C10.0039 7.82705 9.93362 7.65749 9.8086 7.53246C9.68357 7.40744 9.51401 7.3372 9.33719 7.3372ZM14.4772 7.53053L12.9105 6.00387V3.76387C12.9105 3.58705 12.8403 3.41749 12.7153 3.29246C12.5902 3.16744 12.4207 3.0972 12.2439 3.0972H10.0372L8.47719 1.53053C8.41522 1.46805 8.34148 1.41845 8.26025 1.3846C8.17901 1.35076 8.09187 1.33333 8.00386 1.33333C7.91585 1.33333 7.82872 1.35076 7.74748 1.3846C7.66624 1.41845 7.5925 1.46805 7.53053 1.53053L6.00386 3.0972H3.76386C3.58705 3.0972 3.41748 3.16744 3.29246 3.29246C3.16743 3.41749 3.09719 3.58705 3.09719 3.76387V6.00387L1.53053 7.53053C1.46804 7.59251 1.41845 7.66624 1.3846 7.74748C1.35075 7.82872 1.33333 7.91586 1.33333 8.00387C1.33333 8.09187 1.35075 8.17901 1.3846 8.26025C1.41845 8.34149 1.46804 8.41522 1.53053 8.4772L3.09719 10.0372V12.2439C3.09719 12.4207 3.16743 12.5902 3.29246 12.7153C3.41748 12.8403 3.58705 12.9105 3.76386 12.9105H6.00386L7.56386 14.4772C7.62584 14.5397 7.69957 14.5893 7.78081 14.6231C7.86205 14.657 7.94919 14.6744 8.03719 14.6744C8.1252 14.6744 8.21234 14.657 8.29358 14.6231C8.37482 14.5893 8.44855 14.5397 8.51053 14.4772L10.0705 12.9105H12.2772C12.454 12.9105 12.6236 12.8403 12.7486 12.7153C12.8736 12.5902 12.9439 12.4207 12.9439 12.2439V10.0372L14.5105 8.4772C14.5709 8.41305 14.6179 8.33758 14.6489 8.25514C14.68 8.1727 14.6943 8.08494 14.6912 7.99692C14.6881 7.90889 14.6676 7.82236 14.6309 7.7423C14.5941 7.66225 14.5419 7.59028 14.4772 7.53053ZM11.7772 9.29053C11.7142 9.35228 11.6641 9.4259 11.6298 9.50716C11.5954 9.58841 11.5776 9.67566 11.5772 9.76387V11.5772H9.76386C9.67566 11.5776 9.5884 11.5954 9.50715 11.6298C9.4259 11.6641 9.35227 11.7142 9.29053 11.7772L8.00386 13.0639L6.71719 11.7772C6.65545 11.7142 6.58182 11.6641 6.50057 11.6298C6.41932 11.5954 6.33207 11.5776 6.24386 11.5772H4.43053V9.76387C4.43016 9.67566 4.41229 9.58841 4.37796 9.50716C4.34363 9.4259 4.29352 9.35228 4.23053 9.29053L2.94386 8.00387L4.23053 6.7172C4.29352 6.65546 4.34363 6.58183 4.37796 6.50058C4.41229 6.41933 4.43016 6.33207 4.43053 6.24387V4.43053H6.24386C6.33207 4.43017 6.41932 4.4123 6.50057 4.37797C6.58182 4.34364 6.65545 4.29352 6.71719 4.23053L8.00386 2.94387L9.29053 4.23053C9.35227 4.29352 9.4259 4.34364 9.50715 4.37797C9.5884 4.4123 9.67566 4.43017 9.76386 4.43053H11.5772V6.24387C11.5776 6.33207 11.5954 6.41933 11.6298 6.50058C11.6641 6.58183 11.7142 6.65546 11.7772 6.7172L13.0639 8.00387L11.7772 9.29053Z" fill="#72767C"/>
</svg>
